HIERARCHY
ROOT mixamorig:Hips
{
	OFFSET 0.000000 201.639420 0.000000
	CHANNELS 6 Xposition Yposition Zposition Xrotation Yrotation Zrotation
	JOINT mixamorig:Spine
	{
		OFFSET 0.006200 19.524994 -2.481800
		CHANNELS 3 Xrotation Yrotation Zrotation
		JOINT mixamorig:Spine1
		{
			OFFSET -0.000900 22.835007 -2.825400
			CHANNELS 3 Xrotation Yrotation Zrotation
			JOINT mixamorig:Spine2
			{
				OFFSET -0.020600 26.552490 -3.193300
				CHANNELS 3 Xrotation Yrotation Zrotation
				JOINT mixamorig:Neck
				{
					OFFSET -0.060000 30.701813 1.352200
					CHANNELS 3 Xrotation Yrotation Zrotation
					JOINT mixamorig:Head
					{
						OFFSET -0.087200 22.547607 3.670900
						CHANNELS 3 Xrotation Yrotation Zrotation
						JOINT mixamorig:HeadTop_End
						{
							OFFSET -0.830600 40.355194 7.893500
							CHANNELS 3 Xrotation Yrotation Zrotation
							End Site
							{
								OFFSET 0.000000 30.592346 0.000000
							}
						}
						JOINT mixamorig:RightEye
						{
							OFFSET -6.302100 18.118591 16.197100
							CHANNELS 3 Xrotation Yrotation Zrotation
							End Site
							{
								OFFSET 0.000000 30.592346 0.000000
							}
						}
						JOINT mixamorig:LeftEye
						{
							OFFSET 6.741500 18.382690 16.401899
							CHANNELS 3 Xrotation Yrotation Zrotation
							End Site
							{
								OFFSET 0.000000 30.592346 0.000000
							}
						}
					}
				}
				JOINT mixamorig:LeftShoulder
				{
					OFFSET 11.924900 18.230499 1.425400
					CHANNELS 3 Xrotation Yrotation Zrotation
					JOINT mixamorig:LeftArm
					{
						OFFSET 25.435989 -0.697632 -5.229300
						CHANNELS 3 Xrotation Yrotation Zrotation
						JOINT mixamorig:LeftForeArm
						{
							OFFSET 54.684776 0.000000 0.000000
							CHANNELS 3 Xrotation Yrotation Zrotation
							JOINT mixamorig:LeftHand
							{
								OFFSET 55.098175 0.000000 0.000000
								CHANNELS 3 Xrotation Yrotation Zrotation
								JOINT mixamorig:LeftHandMiddle1
								{
									OFFSET 23.369751 0.000000 0.000000
									CHANNELS 3 Xrotation Yrotation Zrotation
									JOINT mixamorig:LeftHandMiddle2
									{
										OFFSET 6.378677 0.000000 0.000000
										CHANNELS 3 Xrotation Yrotation Zrotation
										JOINT mixamorig:LeftHandMiddle3
										{
											OFFSET 6.148331 0.000000 0.000000
											CHANNELS 3 Xrotation Yrotation Zrotation
											JOINT mixamorig:LeftHandMiddle4
											{
												OFFSET 6.582504 0.000000 0.000000
												CHANNELS 3 Xrotation Yrotation Zrotation
												End Site
												{
													OFFSET -1.168900 6.395691 1.028606
												}
											}
										}
									}
								}
								JOINT mixamorig:LeftHandThumb1
								{
									OFFSET 7.235672 -3.848206 5.434273
									CHANNELS 3 Xrotation Yrotation Zrotation
									JOINT mixamorig:LeftHandThumb2
									{
										OFFSET 6.568451 -3.792297 3.792300
										CHANNELS 3 Xrotation Yrotation Zrotation
										JOINT mixamorig:LeftHandThumb3
										{
											OFFSET 6.063080 -3.500519 3.500518
											CHANNELS 3 Xrotation Yrotation Zrotation
											JOINT mixamorig:LeftHandThumb4
											{
												OFFSET 4.793182 -2.767334 2.767349
												CHANNELS 3 Xrotation Yrotation Zrotation
												End Site
												{
													OFFSET 0.101639 6.054260 1.275483
												}
											}
										}
									}
								}
								JOINT mixamorig:LeftHandIndex1
								{
									OFFSET 23.101074 -0.309540 4.992809
									CHANNELS 3 Xrotation Yrotation Zrotation
									JOINT mixamorig:LeftHandIndex2
									{
										OFFSET 6.226883 0.000000 0.000000
										CHANNELS 3 Xrotation Yrotation Zrotation
										JOINT mixamorig:LeftHandIndex3
										{
											OFFSET 6.094330 0.000000 0.000000
											CHANNELS 3 Xrotation Yrotation Zrotation
											JOINT mixamorig:LeftHandIndex4
											{
												OFFSET 5.482605 0.000000 0.000000
												CHANNELS 3 Xrotation Yrotation Zrotation
												End Site
												{
													OFFSET -1.427902 5.233032 0.797164
												}
											}
										}
									}
								}
								JOINT mixamorig:LeftHandRing1
								{
									OFFSET 22.299240 0.021149 -3.964172
									CHANNELS 3 Xrotation Yrotation Zrotation
									JOINT mixamorig:LeftHandRing2
									{
										OFFSET 6.321869 0.000000 0.000000
										CHANNELS 3 Xrotation Yrotation Zrotation
										JOINT mixamorig:LeftHandRing3
										{
											OFFSET 5.899796 0.000000 0.000000
											CHANNELS 3 Xrotation Yrotation Zrotation
											JOINT mixamorig:LeftHandRing4
											{
												OFFSET 6.517899 0.000000 0.000000
												CHANNELS 3 Xrotation Yrotation Zrotation
												End Site
												{
													OFFSET -1.637299 6.232208 0.980890
												}
											}
										}
									}
								}
								JOINT mixamorig:LeftHandPinky1
								{
									OFFSET 20.463791 -0.302338 -8.562233
									CHANNELS 3 Xrotation Yrotation Zrotation
									JOINT mixamorig:LeftHandPinky2
									{
										OFFSET 6.908646 0.000000 0.000000
										CHANNELS 3 Xrotation Yrotation Zrotation
										JOINT mixamorig:LeftHandPinky3
										{
											OFFSET 4.622849 0.000000 0.000000
											CHANNELS 3 Xrotation Yrotation Zrotation
											JOINT mixamorig:LeftHandPinky4
											{
												OFFSET 5.216080 0.000000 0.000000
												CHANNELS 3 Xrotation Yrotation Zrotation
												End Site
												{
													OFFSET -0.606308 5.116241 0.814926
												}
											}
										}
									}
								}
							}
						}
					}
				}
				JOINT mixamorig:RightShoulder
				{
					OFFSET -12.001300 18.284088 1.348900
					CHANNELS 3 Xrotation Yrotation Zrotation
					JOINT mixamorig:RightArm
					{
						OFFSET -25.308500 -0.751312 -5.164599
						CHANNELS 3 Xrotation Yrotation Zrotation
						JOINT mixamorig:RightForeArm
						{
							OFFSET -54.684429 0.000000 0.000000
							CHANNELS 3 Xrotation Yrotation Zrotation
							JOINT mixamorig:RightHand
							{
								OFFSET -55.150291 0.000000 0.000000
								CHANNELS 3 Xrotation Yrotation Zrotation
								JOINT mixamorig:RightHandMiddle1
								{
									OFFSET -23.317566 0.000000 0.000000
									CHANNELS 3 Xrotation Yrotation Zrotation
									JOINT mixamorig:RightHandMiddle2
									{
										OFFSET -6.378403 0.000000 0.000000
										CHANNELS 3 Xrotation Yrotation Zrotation
										JOINT mixamorig:RightHandMiddle3
										{
											OFFSET -6.148193 0.000000 0.000000
											CHANNELS 3 Xrotation Yrotation Zrotation
											JOINT mixamorig:RightHandMiddle4
											{
												OFFSET -6.583389 0.000000 0.000000
												CHANNELS 3 Xrotation Yrotation Zrotation
												End Site
												{
													OFFSET 1.171692 6.395905 1.029786
												}
											}
										}
									}
								}
								JOINT mixamorig:RightHandThumb1
								{
									OFFSET -7.190521 -3.860474 5.435846
									CHANNELS 3 Xrotation Yrotation Zrotation
									JOINT mixamorig:RightHandThumb2
									{
										OFFSET -6.567429 -3.791718 3.791708
										CHANNELS 3 Xrotation Yrotation Zrotation
										JOINT mixamorig:RightHandThumb3
										{
											OFFSET -6.062469 -3.500153 3.500166
											CHANNELS 3 Xrotation Yrotation Zrotation
											JOINT mixamorig:RightHandThumb4
											{
												OFFSET -4.792618 -2.767029 2.767022
												CHANNELS 3 Xrotation Yrotation Zrotation
												End Site
												{
													OFFSET -0.100327 6.053253 1.276754
												}
											}
										}
									}
								}
								JOINT mixamorig:RightHandIndex1
								{
									OFFSET -23.048981 -0.310791 4.992554
									CHANNELS 3 Xrotation Yrotation Zrotation
									JOINT mixamorig:RightHandIndex2
									{
										OFFSET -6.227539 0.000000 0.000000
										CHANNELS 3 Xrotation Yrotation Zrotation
										JOINT mixamorig:RightHandIndex3
										{
											OFFSET -6.095047 0.000000 0.000000
											CHANNELS 3 Xrotation Yrotation Zrotation
											JOINT mixamorig:RightHandIndex4
											{
												OFFSET -5.484772 0.000000 0.000000
												CHANNELS 3 Xrotation Yrotation Zrotation
												End Site
												{
													OFFSET 1.420593 5.237305 0.797056
												}
											}
										}
									}
								}
								JOINT mixamorig:RightHandRing1
								{
									OFFSET -22.246323 0.020569 -3.963762
									CHANNELS 3 Xrotation Yrotation Zrotation
									JOINT mixamorig:RightHandRing2
									{
										OFFSET -6.322128 0.000000 0.000000
										CHANNELS 3 Xrotation Yrotation Zrotation
										JOINT mixamorig:RightHandRing3
										{
											OFFSET -5.900024 0.000000 0.000000
											CHANNELS 3 Xrotation Yrotation Zrotation
											JOINT mixamorig:RightHandRing4
											{
												OFFSET -6.518356 0.000000 0.000000
												CHANNELS 3 Xrotation Yrotation Zrotation
												End Site
												{
													OFFSET 1.636398 6.232697 0.982186
												}
											}
										}
									}
								}
								JOINT mixamorig:RightHandPinky1
								{
									OFFSET -20.411011 -0.303314 -8.561701
									CHANNELS 3 Xrotation Yrotation Zrotation
									JOINT mixamorig:RightHandPinky2
									{
										OFFSET -6.907349 0.000000 0.000000
										CHANNELS 3 Xrotation Yrotation Zrotation
										JOINT mixamorig:RightHandPinky3
										{
											OFFSET -4.623840 0.000000 0.000000
											CHANNELS 3 Xrotation Yrotation Zrotation
											JOINT mixamorig:RightHandPinky4
											{
												OFFSET -5.218353 0.000000 0.000000
												CHANNELS 3 Xrotation Yrotation Zrotation
												End Site
												{
													OFFSET 0.602097 5.118835 0.816273
												}
											}
										}
									}
								}
							}
						}
					}
				}
			}
		}
	}
	JOINT mixamorig:LeftUpLeg
	{
		OFFSET 18.168400 -13.561905 -0.039000
		CHANNELS 3 Xrotation Yrotation Zrotation
		JOINT mixamorig:LeftLeg
		{
			OFFSET 0.577358 -80.825211 -3.695000
			CHANNELS 3 Xrotation Yrotation Zrotation
			JOINT mixamorig:LeftFoot
			{
				OFFSET -0.577356 -83.370262 -6.520700
				CHANNELS 3 Xrotation Yrotation Zrotation
				JOINT mixamorig:LeftToeBase
				{
					OFFSET 0.750401 -20.798306 25.135401
					CHANNELS 3 Xrotation Yrotation Zrotation
					JOINT mixamorig:LeftToe_End
					{
						OFFSET -0.000500 0.001200 19.917799
						CHANNELS 3 Xrotation Yrotation Zrotation
						End Site
						{
							OFFSET 0.000000 19.917805 0.000000
						}
					}
				}
			}
		}
	}
	JOINT mixamorig:RightUpLeg
	{
		OFFSET -18.162500 -13.585098 -0.041000
		CHANNELS 3 Xrotation Yrotation Zrotation
		JOINT mixamorig:RightLeg
		{
			OFFSET -0.595024 -80.945297 -3.631900
			CHANNELS 3 Xrotation Yrotation Zrotation
			JOINT mixamorig:RightFoot
			{
				OFFSET 0.595024 -83.218193 -6.561200
				CHANNELS 3 Xrotation Yrotation Zrotation
				JOINT mixamorig:RightToeBase
				{
					OFFSET -0.753601 -20.807106 25.115000
					CHANNELS 3 Xrotation Yrotation Zrotation
					JOINT mixamorig:RightToe_End
					{
						OFFSET 0.000299 0.001700 19.918200
						CHANNELS 3 Xrotation Yrotation Zrotation
						End Site
						{
							OFFSET 0.000000 19.918203 0.000000
						}
					}
				}
			}
		}
	}
}
MOTION
Frames: 4
Frame Time: 0.033333
12.757431 180.982742 11.205044 12.605007 -22.732027 2.171259 2.989229 -0.589994 0.904767 7.622511 -0.641950 1.263130 7.635869 -0.581603 1.196788 -5.961616 3.842339 -2.351069 -21.783374 16.957068 -1.148369 -0.000000 0.000000 0.000000 -0.000000 0.000000 0.000000 -0.000000 0.000000 0.000000 0.517918 4.762565 -10.396242 -8.058165 -22.287531 -53.261904 0.000044 -80.201727 0.000082 17.782729 3.466835 21.580772 0.731730 3.093813 -26.607678 0.757326 3.144331 -27.077861 0.191590 1.616121 -13.520555 0.000001 -0.000004 -0.000000 -1.721058 -12.290814 3.751987 5.567441 29.295518 2.191146 0.352135 12.222925 3.540886 0.000004 0.000001 0.000001 0.732596 3.095539 -26.623709 0.756459 3.142597 -27.061834 0.191582 1.616117 -13.520540 -0.000000 -0.000000 0.000000 0.732594 3.095539 -26.623707 0.756462 3.142609 -27.061833 0.191581 1.616111 -13.520557 -0.000001 -0.000000 -0.000000 2.544553 6.725885 -26.268486 0.765322 -0.918160 -27.518161 0.191568 1.616127 -13.520553 0.000000 -0.000003 0.000000 1.803090 5.192995 10.424037 -15.691914 19.494545 66.081008 -0.002044 91.575454 0.002038 22.676269 -6.588540 -1.878907 0.739652 -3.125705 26.621441 0.763492 -3.172752 27.055178 0.193362 -1.631614 13.517021 -0.000001 0.000000 -0.000001 -2.042895 12.386423 -4.088331 6.462136 -29.972533 -1.513059 -0.341960 -10.502926 -3.187595 -0.000001 0.000002 0.000000 0.739654 -3.125718 26.621439 0.763490 -3.172718 27.055201 0.193362 -1.631626 13.517011 0.000002 -0.000003 0.000001 0.739653 -3.125721 26.621436 0.763495 -3.172746 27.055173 0.193367 -1.631602 13.517024 -0.000001 -0.000004 0.000004 0.739653 -3.125711 26.621444 0.763493 -3.172738 27.055178 0.193366 -1.631607 13.517023 -0.000002 -0.000005 -0.000002 -52.076330 8.243307 24.335723 51.061975 9.213731 -1.882465 -8.474934 2.416629 -10.473579 -0.929895 0.000002 0.000002 0.000000 -0.000000 0.000000 -44.963542 -8.023518 -19.960586 42.212362 -5.796293 -1.809161 -5.483880 -1.645027 17.370894 -0.003048 0.000029 0.000002 -0.000000 0.000000 0.000000 
12.744737 181.155777 10.938395 12.803374 -22.727682 2.276062 2.940522 -0.536759 0.898260 7.520164 -0.551442 1.201078 7.532706 -0.491790 1.133236 -6.013610 3.848340 -2.348481 -21.846019 16.957878 -1.060367 -0.000000 -0.000000 -0.000000 -0.000000 -0.000000 -0.000000 -0.000000 -0.000000 -0.000000 0.516382 4.774038 -10.395781 -8.071475 -22.032826 -53.242298 0.000117 -80.247934 0.000099 17.625669 3.464849 21.586046 0.731735 3.093813 -26.607673 0.757325 3.144334 -27.077858 0.191589 1.616126 -13.520554 -0.000000 0.000004 0.000000 -1.721057 -12.290814 3.751988 5.567447 29.295521 2.191141 0.352137 12.222924 3.540887 0.000002 -0.000001 0.000000 0.732595 3.095538 -26.623709 0.756459 3.142598 -27.061834 0.191585 1.616121 -13.520545 -0.000001 -0.000001 -0.000002 0.732597 3.095541 -26.623712 0.756467 3.142612 -27.061834 0.191579 1.616118 -13.520555 -0.000003 0.000002 -0.000002 2.544555 6.725884 -26.268479 0.765322 -0.918160 -27.518156 0.191567 1.616133 -13.520552 0.000000 0.000004 0.000001 1.795916 5.189156 10.344723 -15.595009 19.500129 66.018122 -0.002317 91.593773 0.002378 22.653128 -6.632698 -1.904224 0.739648 -3.125705 26.621439 0.763492 -3.172747 27.055175 0.193358 -1.631614 13.517026 -0.000001 0.000000 0.000002 -2.042897 12.386423 -4.088331 6.462142 -29.972533 -1.513058 -0.341961 -10.502922 -3.187598 0.000000 -0.000000 0.000000 0.739655 -3.125717 26.621436 0.763491 -3.172715 27.055190 0.193364 -1.631624 13.517010 0.000001 -0.000001 -0.000001 0.739651 -3.125717 26.621439 0.763499 -3.172746 27.055178 0.193368 -1.631600 13.517023 -0.000001 0.000003 0.000001 0.739647 -3.125712 26.621444 0.763496 -3.172736 27.055175 0.193361 -1.631609 13.517022 0.000000 0.000004 0.000001 -52.194137 8.219084 24.429824 50.786264 9.159595 -2.154840 -8.071153 2.409064 -10.275554 -1.122036 0.000002 -0.000002 0.000000 0.000001 0.000000 -45.076510 -8.004927 -19.864989 41.918312 -5.864971 -1.821235 -5.280385 -1.607185 17.296836 -0.003048 0.000029 0.000002 -0.000000 0.000000 -0.000000 
12.684307 181.329437 10.684324 12.994892 -22.703650 2.375952 2.894432 -0.487863 0.889697 7.424010 -0.467535 1.139236 7.435767 -0.408532 1.069967 -6.067046 3.851817 -2.341046 -21.915046 16.951655 -0.970991 0.000000 0.000001 -0.000000 0.000000 0.000001 -0.000000 0.000000 0.000001 -0.000000 0.514804 4.790348 -10.404530 -8.092181 -21.782836 -53.230967 -0.000074 -80.294222 -0.000077 17.488300 3.461086 21.579534 0.731728 3.093811 -26.607678 0.757326 3.144334 -27.077867 0.191589 1.616127 -13.520560 -0.000000 -0.000000 0.000000 -1.721058 -12.290814 3.751982 5.567448 29.295521 2.191143 0.352139 12.222927 3.540885 0.000001 -0.000001 -0.000000 0.732593 3.095537 -26.623707 0.756465 3.142598 -27.061833 0.191582 1.616123 -13.520546 -0.000002 0.000003 -0.000001 0.732596 3.095541 -26.623712 0.756467 3.142614 -27.061836 0.191580 1.616110 -13.520558 0.000001 -0.000002 0.000001 2.544554 6.725885 -26.268484 0.765321 -0.918162 -27.518158 0.191568 1.616131 -13.520554 -0.000002 -0.000002 0.000001 1.789380 5.185994 10.271916 -15.513784 19.502099 65.958358 -0.001316 91.607078 0.001352 22.628786 -6.673991 -1.927879 0.739657 -3.125702 26.621438 0.763487 -3.172750 27.055180 0.193359 -1.631617 13.517014 -0.000001 0.000001 -0.000001 -2.042896 12.386426 -4.088331 6.462135 -29.972537 -1.513060 -0.341963 -10.502927 -3.187599 -0.000001 0.000000 -0.000000 0.739657 -3.125718 26.621446 0.763493 -3.172715 27.055189 0.193364 -1.631624 13.517006 -0.000000 -0.000001 -0.000002 0.739654 -3.125715 26.621439 0.763494 -3.172746 27.055173 0.193366 -1.631605 13.517022 0.000001 -0.000001 -0.000001 0.739653 -3.125708 26.621446 0.763495 -3.172739 27.055184 0.193361 -1.631607 13.517022 0.000001 -0.000000 -0.000000 -52.259259 8.198965 24.386214 50.433987 9.371919 -2.209929 -7.746777 2.279454 -10.257077 -1.166180 0.000010 0.000002 0.000000 -0.000000 0.000000 -45.201827 -8.076991 -19.822599 41.644104 -5.777429 -1.813959 -5.126892 -1.579782 17.177058 -0.003048 0.000029 0.000002 -0.000000 0.000000 -0.000000 
12.583920 181.502075 10.480091 13.176862 -22.658316 2.470113 2.849922 -0.442762 0.879297 7.332427 -0.389493 1.076279 7.343406 -0.331109 1.005639 -6.121394 3.851660 -2.328314 -21.988558 16.933979 -0.882600 -0.000000 -0.000000 -0.000000 -0.000000 -0.000000 -0.000000 -0.000000 -0.000000 -0.000000 0.513250 4.813116 -10.426093 -8.122469 -21.538947 -53.222873 0.000015 -80.338106 0.000036 17.374750 3.454646 21.563561 0.731734 3.093814 -26.607676 0.757323 3.144335 -27.077863 0.191590 1.616130 -13.520558 -0.000001 0.000002 0.000001 -1.721051 -12.290811 3.751985 5.567449 29.295521 2.191146 0.352138 12.222928 3.540884 -0.000001 0.000001 -0.000001 0.732594 3.095538 -26.623712 0.756457 3.142598 -27.061834 0.191584 1.616121 -13.520547 -0.000001 0.000003 0.000002 0.732600 3.095541 -26.623712 0.756467 3.142609 -27.061833 0.191580 1.616109 -13.520555 -0.000001 0.000001 0.000000 2.544555 6.725885 -26.268484 0.765320 -0.918160 -27.518156 0.191569 1.616131 -13.520553 -0.000001 0.000003 0.000001 1.783450 5.182576 10.206236 -15.446690 19.497883 65.900964 -0.001624 91.618197 0.001605 22.601385 -6.713720 -1.949952 0.739652 -3.125700 26.621441 0.763489 -3.172750 27.055177 0.193357 -1.631612 13.517025 -0.000001 -0.000004 -0.000001 -2.042900 12.386427 -4.088328 6.462136 -29.972533 -1.513059 -0.341959 -10.502927 -3.187595 -0.000001 -0.000004 -0.000000 0.739657 -3.125714 26.621441 0.763494 -3.172718 27.055194 0.193363 -1.631621 13.517004 -0.000000 0.000004 -0.000003 0.739655 -3.125714 26.621441 0.763495 -3.172745 27.055177 0.193366 -1.631605 13.517027 -0.000002 -0.000002 0.000003 0.739654 -3.125706 26.621443 0.763492 -3.172737 27.055182 0.193367 -1.631603 13.517021 -0.000001 0.000002 0.000000 -52.241340 8.217883 24.303386 50.014911 9.652530 -2.172994 -7.650274 2.156168 -10.502264 -1.103341 -0.000003 -0.000004 0.000000 -0.000000 0.000000 -45.297272 -8.138996 -19.802424 41.398975 -5.722054 -1.762937 -5.007144 -1.556301 17.050092 -0.003048 0.000029 0.000002 -0.000000 -0.000000 0.000000 
